<svg xmlns="http://www.w3.org/2000/svg" width="457.85" height="126.76" viewBox="0 0 457.85 126.76"><path d="M177.85,105.25a6.29,6.29,0,0,1,5.56-3.16c3.75,0,7.2,3.22,7.2,8.36s-3.51,8.33-7.26,8.33a6.38,6.38,0,0,1-5.67-3.28l-.33,2.92h-2.21V94.8h2.71Zm-.06,5.17c0,3.45,2.22,5.82,5,5.82s5.08-2.37,5.08-5.79-2.21-5.82-5.08-5.82S177.79,107,177.79,110.42Z" fill="#231f20"/><path d="M198.26,124.63h-2.78l2.75-6.77-6-15.42h3l4.4,12.17h.06l4.4-12.17h2.83Z" fill="#231f20"/><path d="M289.66,99.8l-7.09,17.89h5.06l1.12-3.25h7.15l1.12,3.25h5.06L295,99.8Zm.08,11.38,2.59-7.18,2.6,7.18Z" fill="#231f20"/><polygon points="274.86 103.88 284.26 103.88 284.26 99.81 274.86 99.81 270.17 107.94 270.17 117.7 274.87 117.7 274.87 112.01 281.45 112.01 281.45 107.94 274.86 107.94 274.86 103.88" fill="#231f20"/><path d="M372.08,111.38a6,6,0,0,0,3.18-5.41,6.17,6.17,0,0,0-6.17-6.16h-9.66V117.7h4.71V112h2.67l3.28,5.69h5.63Zm-3.33-3.44h-4.61v-4.06h4.61a2,2,0,1,1,0,4.06Z" fill="#231f20"/><path d="M347.28,99.08a9.68,9.68,0,1,0,9.68,9.67A9.67,9.67,0,0,0,347.28,99.08Zm0,15a5.37,5.37,0,1,1,5.37-5.37A5.37,5.37,0,0,1,347.28,114.12Z" fill="#231f20"/><path d="M312.29,103.39a5.36,5.36,0,0,1,4.65,2.69l3.73-2.16a9.68,9.68,0,1,0,0,9.67l-3.73-2.15a5.37,5.37,0,1,1-4.65-8Z" fill="#231f20"/><rect x="217.6" y="99.81" width="4.7" height="17.89" fill="#231f20"/><polygon points="222.44 108.76 222.43 108.76 222.44 108.75 222.44 108.76" fill="#231f20"/><polygon points="251.99 113.63 251.99 117.7 237.81 117.7 237.81 99.81 247.31 99.81 248.16 101.29 249.65 103.88 242.51 103.88 242.51 106.72 249.16 106.72 249.16 110.79 242.51 110.79 242.51 113.63 251.99 113.63" fill="#231f20"/><polygon points="270.17 99.81 263.13 112 263.13 117.7 258.43 117.7 258.43 112 251.39 99.81 257.02 99.81 260.78 106.31 264.54 99.81 270.17 99.81" fill="#231f20"/><polygon points="260.78 101.44 264.54 94.93 257.02 94.93 260.78 101.44" fill="#231f20"/><polygon points="228.73 108.75 235.43 117.7 229.56 117.7 223.18 108.76 229.56 99.81 235.43 99.81 228.73 108.75" fill="#231f20"/><polygon points="336.8 99.81 322.16 99.81 322.16 103.88 327.13 103.88 327.13 117.7 331.83 117.7 331.83 103.88 336.8 103.88 336.8 99.81" fill="#231f20"/><polygon points="6.32 2.73 6.32 82.09 40.34 82.09 40.34 2.73 6.32 2.73 6.32 2.73" fill="#1962a6"/><polygon points="51.67 2.73 51.67 59.42 85.69 59.42 85.69 2.73 51.67 2.73 51.67 2.73" fill="#549b4a"/><polygon points="51.67 59.42 51.67 82.09 85.69 82.09 85.69 59.42 51.67 59.42 51.67 59.42" fill="#fdb738"/><polygon points="6.32 82.09 6.32 116.11 40.34 116.11 40.34 82.09 6.32 82.09 6.32 82.09" fill="#f04c41"/><path d="M118.22,61.05v21h-9.86V25.38h21.7q9.49,0,15.09,4.95a16.66,16.66,0,0,1,5.58,13.1q0,8.34-5.47,13t-15.32,4.64Zm0-7.94h11.84q5.25,0,8-2.47t2.76-7.15a9.8,9.8,0,0,0-2.8-7.34,10.8,10.8,0,0,0-7.71-2.82H118.22Z" fill="#231f20"/><path d="M178.9,48.59a23.21,23.21,0,0,0-3.86-.31q-6.49,0-8.76,5V82.08h-9.46V40h9l.24,4.71a10.65,10.65,0,0,1,9.5-5.49,8.93,8.93,0,0,1,3.35.54Z" fill="#231f20"/><path d="M183.48,29a5.1,5.1,0,0,1,1.38-3.65,5.22,5.22,0,0,1,3.95-1.45,5.31,5.31,0,0,1,4,1.45,5.07,5.07,0,0,1,1.4,3.65,5,5,0,0,1-1.4,3.6,5.34,5.34,0,0,1-4,1.43,5.25,5.25,0,0,1-3.95-1.43A5,5,0,0,1,183.48,29Zm10.05,53.12h-9.47V40h9.47Z" fill="#231f20"/><path d="M211.48,40l.27,4.4q4.44-5.18,12.15-5.18,8.46,0,11.57,6.46a14.93,14.93,0,0,1,12.93-6.46q7,0,10.38,3.85t3.48,11.37V82.08H252.8V54.67c0-2.68-.59-4.64-1.75-5.88s-3.11-1.87-5.81-1.87A7.89,7.89,0,0,0,240,48.65a9.16,9.16,0,0,0-2.87,4.54l0,28.89h-9.46V54.36q-.19-7.44-7.59-7.44-5.68,0-8.07,4.63V82.08h-9.46V40Z" fill="#231f20"/><path d="M289.16,82.86q-9,0-14.59-5.66T269,62.11V60.94a25.2,25.2,0,0,1,2.44-11.28,18.56,18.56,0,0,1,6.83-7.73,18.09,18.09,0,0,1,9.81-2.76q8.61,0,13.3,5.49t4.7,15.54V64H278.52A12.69,12.69,0,0,0,282,72.27a10.49,10.49,0,0,0,7.69,3,12.81,12.81,0,0,0,10.59-5.26l5.1,4.87a17,17,0,0,1-6.75,5.86A21.15,21.15,0,0,1,289.16,82.86ZM288,46.76a8,8,0,0,0-6.29,2.73,14.11,14.11,0,0,0-3.06,7.59h18v-.7q-.31-4.76-2.53-7.18A7.88,7.88,0,0,0,288,46.76Z" fill="#231f20"/><path d="M330,57.59l-6.43,6.81V82.08H313.7V25.38h9.85V52L329,45.24l16.59-19.86h11.92L336.44,50.5l22.28,31.58H347Z" fill="#231f20"/><path d="M377.81,82.86q-9,0-14.58-5.66t-5.59-15.09V60.94a25.33,25.33,0,0,1,2.43-11.28,18.59,18.59,0,0,1,6.84-7.73,18.07,18.07,0,0,1,9.81-2.76q8.61,0,13.3,5.49t4.69,15.54V64H367.18a12.69,12.69,0,0,0,3.49,8.26,10.47,10.47,0,0,0,7.69,3A12.84,12.84,0,0,0,389,70.05l5.1,4.87a17,17,0,0,1-6.76,5.86A21.09,21.09,0,0,1,377.81,82.86Zm-1.13-36.1a8,8,0,0,0-6.29,2.73,14.18,14.18,0,0,0-3.05,7.59h18v-.7q-.31-4.76-2.53-7.18A7.91,7.91,0,0,0,376.68,46.76Z" fill="#231f20"/><path d="M415.51,68.53,424.08,40h10.09L417.42,88.47q-3.85,10.64-13.09,10.63a16.82,16.82,0,0,1-4.55-.7V91l1.79.12A9.17,9.17,0,0,0,407,89.85a8.71,8.71,0,0,0,2.87-4.37l1.36-3.62L396.39,40h10.2Z" fill="#231f20"/><path d="M447.22,42.39h1.39a1.92,1.92,0,0,1,1.18.31,1.18,1.18,0,0,1,.35,1,1.09,1.09,0,0,1-.42.89,1.66,1.66,0,0,1-1.06.33h-1.44Zm1.5,3.21a1.4,1.4,0,0,1,1,.29,1.37,1.37,0,0,1,.3,1,5.78,5.78,0,0,0,.11,1.46H451v-.13a1.75,1.75,0,0,1-.1-.46,6.49,6.49,0,0,1,0-.87,2.25,2.25,0,0,0-.23-1,1.36,1.36,0,0,0-.79-.64,1.66,1.66,0,0,0,1.12-1.56,1.74,1.74,0,0,0-.63-1.48,2.86,2.86,0,0,0-1.8-.49h-2v6.67h.77V45.6Zm-4.52-3.13A5,5,0,0,1,446,40.55a4.78,4.78,0,0,1,2.49-.7,4.67,4.67,0,0,1,2.52.72,4.8,4.8,0,0,1,1.79,1.92,5.59,5.59,0,0,1,0,5.25A4.81,4.81,0,0,1,451,49.67a4.75,4.75,0,0,1-2.49.71,4.69,4.69,0,0,1-2.48-.71,5,5,0,0,1-1.82-1.92,5.51,5.51,0,0,1-.66-2.65,5.42,5.42,0,0,1,.65-2.63m-.61,5.58a5.65,5.65,0,0,0,2,2.19,5.47,5.47,0,0,0,5.76,0,5.65,5.65,0,0,0,2-2.19,6.39,6.39,0,0,0,0-5.93A5.63,5.63,0,0,0,451.35,40a5.5,5.5,0,0,0-5.68,0,5.63,5.63,0,0,0-2.06,2.16,6.39,6.39,0,0,0,0,5.93" fill="#231f20"/><path d="M386.16,103.46a3.91,3.91,0,1,1-3.91-3.89A3.91,3.91,0,0,1,386.16,103.46Zm-.67,0a3.23,3.23,0,1,0-6.46,0,3.23,3.23,0,0,0,6.46,0Zm-3.06.37,1.49,1.66h-.81l-1.38-1.61h-.07v1.61H381v-4.18h1.06c1,0,1.58.57,1.58,1.3A1.29,1.29,0,0,1,382.43,103.83Zm-.41-.49c.63,0,1-.25,1-.73s-.41-.7-1.07-.7h-.31v1.43Z" fill="#231f20"/></svg>