<?xml version="1.0" encoding="UTF-8"?><svg id="a" xmlns="http://www.w3.org/2000/svg" width="400" height="80" xmlns:xlink="http://www.w3.org/1999/xlink" viewBox="0 0 400 80"><defs><linearGradient id="b" x1="39.47" y1="60.2" x2="64.77" y2="38.22" gradientTransform="matrix(1, 0, 0, 1, 0, 0)" gradientUnits="userSpaceOnUse"><stop offset=".23" stop-color="#008d7d"/><stop offset=".89" stop-color="#1e589f"/></linearGradient><linearGradient id="c" x1="12.14" y1="50.37" x2="79.85" y2="-2.7" gradientTransform="matrix(1, 0, 0, 1, 0, 0)" gradientUnits="userSpaceOnUse"><stop offset=".37" stop-color="#008d7d"/><stop offset=".77" stop-color="#146894"/><stop offset="1" stop-color="#1e589f"/></linearGradient></defs><g><path d="M80.2,43.95c-1.65,.49-3.41,1.07-5.28,1.75,0,0-.01,0-.04,.01-.03,0-.05,.02-.08,.03-7.32,2.73-17.85,8.81-25.2,16.03-3.42,3.37-4.89,3.81-7.95,.11l-4.43-5s-.05-.06-.07-.09c-.03-.03-.05-.05-.06-.07l-.03-.03-2.7-3.27h-.01l-2.04-2.47c-.68-.82-.67-2.02,.03-2.82,.28-.31,.55-.62,.83-.92,0,0,0,0,0,0,.57-.63,1.15-1.24,1.73-1.83,.28-.29,.55-.57,.84-.84,.82-.82,1.65-1.6,2.48-2.36,.34-.31,.67-.61,1.01-.9,.34-.3,.68-.59,1.02-.88,1.34-1.14,2.7-2.2,4.07-3.22,18.71-.4,33.67,5.83,35.88,6.78Z" fill="url(#b)"/><path d="M87.47,11.3l-6.85,32.07-.02,.1-.09,.38c-.03,.08-.16,.18-.32,.1-2.21-.95-17.17-7.18-35.88-6.78-4.49,.09-9.19,.57-13.99,1.59-1.67,.36-3.36,.33-4.97-.04-.02,0-.05,0-.07-.02-.38-.09-.75-.2-1.12-.34h-.02c-.1-.03-.2-.06-.3-.1-.02,0-.04-.02-.05-.02-.31-.13-.61-.27-.92-.4-.03,0-.06-.02-.09-.04-1.49-.73-2.85-1.78-3.94-3.11L2.09,14.43c-1.07-1.29-.6-3.26,.94-3.93C28.19-.58,52.9,.62,70.49,4.16h.02c5.97,1.2,11.13,2.67,15.2,4.02,1.3,.43,2.06,1.78,1.77,3.11Z" fill="url(#c)"/></g><g><g><path d="M132.5,10.17v6.58c-2.87-2.08-6.75-3.26-10.07-3.26-4.11,0-7.37,1.86-7.37,5.4,0,3.21,2.7,4.72,7.93,7.03,6.19,2.64,11.81,5.34,11.81,12.6,0,7.76-6.19,12.54-14.46,12.54-5.01,0-9.39-1.8-12.09-3.82v-7.03c2.93,2.81,7.37,4.78,11.64,4.78s8.04-2.31,8.04-6.19c0-3.49-3.04-5.12-8.44-7.48-5.74-2.53-11.14-5.12-11.14-12.09s5.79-11.81,13.78-11.81c4.05,0,7.76,1.18,10.35,2.76Z" fill="#fff"/><path d="M141.26,9.72c0-2.19,1.69-3.82,3.88-3.82s3.88,1.63,3.88,3.82-1.69,3.77-3.88,3.77-3.88-1.63-3.88-3.77Zm.56,9.73h6.64v30.71h-6.64V19.45Z" fill="#fff"/><path d="M179.73,24.51l.73-5.06h5.51v27.67c0,10.12-7.14,15.58-15.92,15.58-4.16,0-8.32-1.41-11.53-3.71v-6.69c3.15,2.76,7.2,4.44,11.08,4.44,5.46,0,9.73-3.49,9.73-8.72v-3.94c-2.08,3.32-5.79,5.51-10.12,5.51-7.2,0-13.78-6.19-13.78-15.41s6.69-15.41,13.89-15.41c4.33,0,8.27,2.25,10.41,5.74Zm-17.66,9.73c0,5.34,3.77,9.39,8.72,9.39s8.72-4.11,8.72-9.56-3.77-9.28-8.72-9.28-8.72,4.11-8.72,9.45Z" fill="#fff"/><path d="M220.9,29.74v20.42h-6.64V31.88c0-4.72-2.14-6.97-6.24-6.97-3.83,0-6.75,2.81-6.75,6.69v18.56h-6.64V19.45h5.12l.73,4.56h.17c1.74-2.87,5.06-5.29,9.34-5.29,6.69,0,10.91,4.27,10.91,11.02Z" fill="#fff"/><path d="M252.56,10.17v6.58c-2.87-2.08-6.75-3.26-10.07-3.26-4.11,0-7.37,1.86-7.37,5.4,0,3.21,2.7,4.72,7.93,7.03,6.19,2.64,11.81,5.34,11.81,12.6,0,7.76-6.19,12.54-14.46,12.54-5.01,0-9.39-1.8-12.09-3.82v-7.03c2.93,2.81,7.37,4.78,11.64,4.78s8.04-2.31,8.04-6.19c0-3.49-3.04-5.12-8.44-7.48-5.74-2.53-11.14-5.12-11.14-12.09s5.79-11.81,13.78-11.81c4.05,0,7.76,1.18,10.35,2.76Z" fill="#fff"/><path d="M288.44,36.83h-22.05c.9,5.4,5.01,8.55,10.4,8.55,3.49,0,6.92-1.24,10.01-3.66v5.96c-3.15,2.14-6.75,3.21-10.69,3.21-10.07,0-16.14-6.52-16.14-15.97s6.86-16.2,15.07-16.2c7.42,0,13.55,5.34,13.55,15.52,0,.96-.06,1.8-.17,2.59Zm-6.13-4.44c-.17-5.46-3.49-8.16-7.31-8.16-4.22,0-7.87,3.09-8.66,8.16h15.97Z" fill="#fff"/><path d="M295.41,19.45h5.29l.67,4.78h.11c2.08-3.88,5.85-5.12,8.6-5.12,.84,0,1.52,.06,2.14,.17v6.3c-.73-.17-1.52-.22-2.31-.22-3.94,0-7.87,2.36-7.87,8.27v16.54h-6.64V19.45Z" fill="#fff"/><path d="M314.25,19.45h7.09l7.7,23.51h.17l7.71-23.51h6.86l-11.19,30.71h-7.14l-11.19-30.71Z" fill="#fff"/><path d="M374.71,36.83h-22.05c.9,5.4,5.01,8.55,10.41,8.55,3.49,0,6.92-1.24,10.01-3.66v5.96c-3.15,2.14-6.75,3.21-10.69,3.21-10.07,0-16.14-6.52-16.14-15.97s6.86-16.2,15.07-16.2c7.42,0,13.55,5.34,13.55,15.52,0,.96-.06,1.8-.17,2.59Zm-6.13-4.44c-.17-5.46-3.49-8.16-7.31-8.16-4.22,0-7.87,3.09-8.66,8.16h15.97Z" fill="#fff"/><path d="M381.68,19.45h5.29l.67,4.78h.11c2.08-3.88,5.85-5.12,8.6-5.12,.84,0,1.52,.06,2.14,.17v6.3c-.73-.17-1.52-.22-2.31-.22-3.94,0-7.87,2.36-7.87,8.27v16.54h-6.64V19.45Z" fill="#fff"/></g><g><path d="M280.56,66.45c.64-1.16,1.96-1.84,3.28-1.84,2.28,0,4.35,1.98,4.35,5.1s-2.14,5.1-4.43,5.1c-1.39,0-2.64-.71-3.34-1.91l-.23,1.68h-1.75v-14.29h2.1v6.16Zm-.04,3.27c0,1.87,1.19,3.18,2.77,3.18s2.78-1.3,2.78-3.16-1.21-3.19-2.8-3.19-2.75,1.32-2.75,3.18Z" fill="#fff"/><path d="M293.1,78.33h-2.12l1.68-4.07-3.66-9.42h2.28l2.44,7.03h.04l2.46-7.03h2.18l-5.3,13.49Z" fill="#fff"/><path d="M312.43,74.58l-5.66-6.44v6.44h-2.14v-13.28h2.14v6.39l5.64-6.39h2.57l-5.87,6.57,5.98,6.71h-2.66Z" fill="#fff"/><path d="M324.23,70.35h-7c.29,1.71,1.59,2.71,3.3,2.71,1.11,0,2.19-.39,3.17-1.16v1.89c-1,.68-2.14,1.02-3.39,1.02-3.19,0-5.12-2.07-5.12-5.07s2.18-5.14,4.78-5.14c2.36,0,4.3,1.69,4.3,4.92,0,.3-.02,.57-.05,.82Zm-1.94-1.41c-.05-1.73-1.11-2.59-2.32-2.59-1.34,0-2.5,.98-2.75,2.59h5.07Z" fill="#fff"/><path d="M329.18,78.33h-2.12l1.68-4.07-3.66-9.42h2.28l2.45,7.03h.04l2.46-7.03h2.18l-5.3,13.49Z" fill="#fff"/><path d="M336.74,66.62h-1.37v-1.78h1.37v-1.28c0-1.87,1.34-3.39,3.52-3.39,.61,0,1.18,.11,1.73,.29v1.86c-.36-.13-.91-.25-1.41-.25-1.14,0-1.75,.54-1.75,1.73v1.05h2.71v1.78h-2.69v7.96h-2.11v-7.96Z" fill="#fff"/><path d="M342.37,69.73c0-3.1,2.14-5.12,4.37-5.12,1.43,0,2.68,.71,3.37,1.91l.23-1.68h1.75v9.74h-1.75l-.23-1.68c-.7,1.2-1.94,1.91-3.37,1.91-2.23,0-4.37-2.02-4.37-5.09Zm7.67-.02c0-1.86-1.21-3.18-2.77-3.18s-2.8,1.32-2.8,3.18,1.21,3.18,2.8,3.18,2.77-1.3,2.77-3.18Z" fill="#fff"/><path d="M359.48,72.89c.78,0,1.71-.16,2.53-.77v2.02c-.75,.43-1.71,.68-2.76,.68-2.84,0-5-2.18-5-5.12s2.16-5.09,5-5.09c1,0,1.96,.2,2.76,.7v2.03c-.82-.57-1.6-.8-2.55-.8-1.62,0-3.09,1.21-3.09,3.18s1.46,3.18,3.11,3.18Z" fill="#fff"/><path d="M366.84,64.84h2.69v1.78h-2.69v4.32c0,1.39,.86,1.96,2.03,1.96,.27,0,.55-.04,.88-.09v1.8c-.27,.05-.71,.12-1.3,.12-2.3,0-3.68-1.37-3.68-3.69v-4.43h-1.43v-1.78h1.46v-2.27h2.03v2.27Z" fill="#fff"/><path d="M370.92,69.71c0-2.96,2.16-5.1,4.96-5.1s4.94,2.14,4.94,5.1-2.12,5.1-4.94,5.1-4.96-2.14-4.96-5.1Zm7.78,0c0-2.02-1.37-3.18-2.82-3.18s-2.84,1.16-2.84,3.18,1.39,3.18,2.84,3.18,2.82-1.16,2.82-3.18Z" fill="#fff"/><path d="M382.99,64.84h1.68l.21,1.52h.04c.66-1.23,1.86-1.62,2.73-1.62,.27,0,.48,.02,.68,.05v2c-.23-.05-.48-.07-.73-.07-1.25,0-2.5,.75-2.5,2.62v5.25h-2.11v-9.74Z" fill="#fff"/></g></g></svg>