<?xml version="1.0" encoding="UTF-8" standalone="no"?>
<!-- Generator: Adobe Illustrator 25.0.0, SVG Export Plug-In . SVG Version: 6.00 Build 0)  -->

<svg
   version="1.1"
   id="Layer_1"
   x="0px"
   y="0px"
   viewBox="0 0 470.10997 69.849998"
   xml:space="preserve"
   sodipodi:docname="kf-logo.svg"
   width="470.10999"
   height="69.849998"
   inkscape:version="1.1.1 (c3084ef, 2021-09-22)"
   xmlns:inkscape="http://www.inkscape.org/namespaces/inkscape"
   xmlns:sodipodi="http://sodipodi.sourceforge.net/DTD/sodipodi-0.dtd"
   xmlns="http://www.w3.org/2000/svg"
   xmlns:svg="http://www.w3.org/2000/svg"><defs
   id="defs855" /><sodipodi:namedview
   id="namedview853"
   pagecolor="#ffffff"
   bordercolor="#666666"
   borderopacity="1.0"
   inkscape:pageshadow="2"
   inkscape:pageopacity="0.0"
   inkscape:pagecheckerboard="0"
   showgrid="false"
   fit-margin-top="0"
   fit-margin-left="0"
   fit-margin-right="0"
   fit-margin-bottom="0"
   inkscape:zoom="0.93151082"
   inkscape:cx="173.37426"
   inkscape:cy="-1.6102873"
   inkscape:window-width="1440"
   inkscape:window-height="791"
   inkscape:window-x="0"
   inkscape:window-y="25"
   inkscape:window-maximized="1"
   inkscape:current-layer="Layer_1" />
<style
   type="text/css"
   id="style824">
	.st0{fill:#FFFFFF;}
</style>
<g
   id="g850"
   transform="translate(-1.89,-1.08)">
	<path
   class="st0"
   d="m 216.12,15.55 -21.06,53.18 h 15.04 l 3.33,-9.67 h 21.26 l 3.33,9.67 h 15.03 L 232,15.55 Z m 0.25,33.84 7.69,-21.35 7.73,21.35 z"
   id="path826" />
	<polygon
   class="st0"
   points="200.09,15.58 172.14,15.58 158.18,39.75 158.18,68.76 172.16,68.76 172.16,51.84 191.73,51.84 191.73,39.75 172.14,39.75 172.14,27.67 200.09,27.67 "
   id="polygon828" />
	<path
   class="st0"
   d="m 461.15,49.96 c 5.81,-3.07 9.46,-9.02 9.46,-16.06 0,-10.11 -8.22,-18.32 -18.32,-18.32 h -28.71 v 53.18 h 13.98 V 51.84 h 7.93 l 9.76,16.92 H 472 Z M 451.27,39.75 H 437.55 V 27.67 h 13.72 c 3.35,0 6.05,2.7 6.05,6.03 0.01,3.35 -2.7,6.05 -6.05,6.05 z"
   id="path830" />
	<path
   class="st0"
   d="m 387.43,13.42 c -15.89,0 -28.76,12.87 -28.76,28.75 0,15.89 12.87,28.76 28.76,28.76 15.89,0 28.77,-12.87 28.77,-28.76 0,-15.88 -12.88,-28.75 -28.77,-28.75 z m 0,44.7 c -8.79,0 -15.94,-7.16 -15.94,-15.95 0,-8.79 7.15,-15.94 15.94,-15.94 8.81,0 15.96,7.16 15.96,15.94 0,8.79 -7.15,15.95 -15.96,15.95 z"
   id="path832" />
	<path
   class="st0"
   d="m 283.42,26.22 c 5.91,0 11.06,3.21 13.82,7.98 l 11.1,-6.41 C 303.39,19.2 294.07,13.4 283.43,13.4 c -15.88,0 -28.75,12.87 -28.75,28.75 0,15.88 12.87,28.75 28.75,28.75 10.64,0 19.94,-5.77 24.91,-14.37 l -11.1,-6.41 c -2.76,4.75 -7.92,7.96 -13.82,7.96 -8.79,0 -15.94,-7.15 -15.94,-15.94 -0.01,-8.76 7.15,-15.92 15.94,-15.92 z"
   id="path834" />
	<rect
   x="1.89"
   y="15.58"
   class="st0"
   width="13.98"
   height="53.18"
   id="rect836" />
	<polygon
   class="st0"
   points="16.28,42.17 16.28,42.18 16.27,42.18 "
   id="polygon838" />
	<polygon
   class="st0"
   points="61.99,68.76 61.99,15.58 90.21,15.58 92.76,19.97 97.19,27.67 75.96,27.67 75.96,36.13 95.72,36.13 95.72,48.21 75.96,48.21 75.96,56.67 104.15,56.67 104.15,68.76 "
   id="polygon840" />
	<polygon
   class="st0"
   points="137.26,68.76 123.28,68.76 123.28,51.81 102.36,15.58 119.1,15.58 130.27,34.92 141.43,15.58 158.18,15.58 137.26,51.82 "
   id="polygon842" />
	<polygon
   class="st0"
   points="119.1,1.08 130.27,20.41 141.43,1.08 "
   id="polygon844" />
	<polygon
   class="st0"
   points="37.44,68.76 18.48,42.18 37.44,15.58 54.92,15.58 34.98,42.17 54.92,68.76 "
   id="polygon846" />
	<polygon
   class="st0"
   points="312.77,27.67 327.52,27.67 327.52,68.76 341.5,68.76 341.5,27.67 356.26,27.67 356.26,15.58 312.77,15.58 "
   id="polygon848" />
</g>
</svg>
