<svg xmlns="http://www.w3.org/2000/svg" width="18" height="18" viewBox="0 0 18 18">
  <path fill="#0052CC" fill-rule="evenodd" d="M9,18 C4.02943725,18 9.99200722e-16,13.9705627 0,9 C-4.99600361e-16,4.02943725 4.02943725,9.99200722e-16 9,0 C13.9705627,0 18,4.02943725 18,9 C18,13.9705627 13.9705627,18 9,18 Z M9,8.4375 C8.37867966,8.4375 7.875,8.94117966 7.875,9.5625 L7.875,12.375 C7.875,12.9963203 8.37867966,13.5 9,13.5 C9.62132034,13.5 10.125,12.9963203 10.125,12.375 L10.125,9.5625 C10.125,8.94117966 9.62132034,8.4375 9,8.4375 Z M9,7.171875 C9.85431547,7.171875 10.546875,6.47931547 10.546875,5.625 C10.546875,4.77068453 9.85431547,4.078125 9,4.078125 C8.14568453,4.078125 7.453125,4.77068453 7.453125,5.625 C7.453125,6.47931547 8.14568453,7.171875 9,7.171875 Z"/>
</svg>
