<svg xmlns="http://www.w3.org/2000/svg" width="21" height="19" viewBox="0 0 21 19">
  <path fill="#FF8B00" fill-rule="evenodd" d="M11.9974522,1.47115579 L20.5852042,16.8401862 C20.7866865,17.201531 20.7817867,17.6425435 20.5723259,17.9993227 C20.3628651,18.3561019 19.9801582,18.5753083 19.5664371,18.5754746 L1.37099882,18.5754746 C0.956922863,18.5755393 0.573820749,18.3561739 0.364285123,17.9990272 C0.154749496,17.6418806 0.150162582,17.2004427 0.352231654,16.8390192 L8.94115068,1.47115579 C9.25064124,0.918067449 9.83492687,0.575474573 10.4687179,0.575474573 C11.102509,0.575474573 11.6867946,0.918067449 11.9962852,1.47115579 L11.9974522,1.47115579 Z M10.4687179,5.15528858 C10.1009141,5.15525989 9.75106889,5.31429384 9.50926449,5.59144061 C9.26746009,5.86858737 9.15732588,6.23676381 9.20722045,6.60116775 L9.80587744,10.9959869 C9.85006673,11.3282924 10.1334873,11.5765191 10.4687179,11.5765191 C10.8039486,11.5765191 11.0873691,11.3282924 11.1315584,10.9959869 L11.7302154,6.60116775 C11.78011,6.23676381 11.6699758,5.86858737 11.4281714,5.59144061 C11.186367,5.31429384 10.8365218,5.15525989 10.4687179,5.15528858 L10.4687179,5.15528858 Z M10.4687179,15.2262629 C11.1937818,15.2262629 11.7815622,14.6384825 11.7815622,13.9134186 C11.7815622,13.1883548 11.1937818,12.6005744 10.4687179,12.6005744 C9.74365406,12.6005744 9.15587365,13.1883548 9.15587365,13.9134186 C9.15587365,14.6384825 9.74365406,15.2262629 10.4687179,15.2262629 Z"/>
</svg>
