<svg xmlns="http://www.w3.org/2000/svg" width="18" height="18" viewBox="0 0 18 18">
  <path fill="#DE350B" fill-rule="evenodd" d="M10.670625,8.920125 L13.057875,6.534 C13.4974591,6.09441586 13.4974591,5.38170915 13.057875,4.94212501 C12.6182908,4.50254087 11.9055841,4.50254087 11.466,4.942125 L9.081,7.329375 L6.69375,4.942125 C6.25416585,4.50285153 5.54171099,4.50310338 5.10243752,4.94268752 C4.66316404,5.38227165 4.66341587,6.09472651 5.103,6.534 L7.488,8.919 L5.103,11.30625 C4.67665626,11.7476762 4.68275358,12.4493454 5.1167041,12.8832959 C5.55065463,13.3172464 6.25232375,13.3233437 6.69375,12.897 L9.079875,10.512 L11.466,12.897 C11.7501601,13.1813611 12.1644397,13.292524 12.5527837,13.1886146 C12.9411277,13.0847053 13.2445374,12.78151 13.3487212,12.3932396 C13.4529051,12.0049692 13.3420351,11.5906111 13.057875,11.30625 L10.670625,8.920125 L10.670625,8.920125 Z M9,18 C4.02943725,18 9.99200722e-16,13.9705627 0,9 C-4.99600361e-16,4.02943725 4.02943725,9.99200722e-16 9,0 C13.9705627,0 18,4.02943725 18,9 C18,13.9705627 13.9705627,18 9,18 Z"/>
</svg>
